<svg width="106" height="149" viewBox="0 0 106 149" fill="none" xmlns="http://www.w3.org/2000/svg">
<g id="Group 273">
<g id="Group">
<path id="Vector" d="M133.531 88.5991C133.609 90.7575 132.138 92.483 128.717 93.2249C125.849 93.3836 124.412 96.2525 121.82 96.3563C119.86 98.1743 117.722 97.4697 118.466 100.615C119.416 102.936 119.254 104.973 118.237 107.115C117.975 108.709 116.506 111.424 115.432 112.012C112.389 113.229 112.15 115.09 111.896 117.093C111.601 119.241 110.548 120.801 107.501 120.604C105.317 119.439 101.502 118.508 99.5917 118.168C97.3021 116.296 95.4321 117.997 94.3721 119.946C92.9593 121.679 91.9072 125.989 91.9381 129.407C91.9256 132.827 90.3931 132.359 86.2959 129.196C83.4176 124.172 82.2927 126.127 79.9066 130.026C79.3425 135.711 75.7058 134.376 74.8322 131.147C72.8479 127.938 70.8482 124.603 69.3996 123.741C67.8473 123.612 65.1481 123.151 63.7403 124.387C61.8276 126.307 58.2138 128.49 56.0079 131.3C52.5278 133.772 51.9062 133.163 51.1472 128.33C50.6704 122.965 51.1265 119.855 49.6 118.162C47.6409 115.893 47.2546 113.648 46.2165 113.967C44.074 113.819 42.4217 113.22 40.6641 112.569C38.7736 113.184 35.1732 112.672 31.792 113.712C28.6151 114.175 27.6156 113.306 27.3689 110.322C26.6822 108.121 27.1177 105.607 25.0786 104.3C23.049 102.392 19.7887 102.65 19.7056 100.528C18.081 98.1483 17.2241 96.4029 15.2441 95.7499C13.5549 94.9517 11.9239 91.3596 11.056 90.5153C10.3749 89.1937 10.3748 85.9312 12.1428 84.0321C13.6492 81.3418 17.5873 79.2353 20.4046 77.0646C23.0455 75.7403 24.7965 71.9895 19.5019 71.004C14.5393 67.8686 13.8032 66.6304 14.035 65.3146C13.9379 63.8294 16.087 61.7148 15.3417 59.3971C16.6803 56.5362 15.2577 54.4678 15.3697 53.0249C15.0236 49.8288 18.2048 48.6439 21.518 49.3832C25.7491 48.2377 28.4728 48.1658 30.2065 47.5093C32.1105 46.1646 30.646 42.6888 27.6025 39.0043C23.7721 33.3457 25.2177 33.1025 27.1545 31.665C28.6157 32.1356 31.5986 31.4377 35.0232 31.1615C37.3972 30.4629 37.4697 27.9714 37.4059 24.2749C35.4047 19.84 36.9726 18.0264 39.9166 17.589C41.6776 18.3429 44.9957 16.8019 47.1108 17.7985C48.5117 17.7184 51.0038 18.6425 54.1789 19.3593C56.305 20.4422 58.9006 21.3671 60.884 22.5638C62.5847 24.4586 64.7387 20.6225 65.6597 16.5504C66.4674 10.8913 68.213 11.0773 70.5697 15.3936C73.6637 18.9662 75.2174 21.3721 76.6173 18.4529C78.2083 15.4654 79.4589 15.1186 82.582 14.0812C85.896 12.7033 85.919 14.4321 87.8975 15.7722C88.9533 18.0885 90.8727 18.3575 94.2334 15.9645C96.0072 14.8838 97.5775 16.0792 97.3456 22.1683C96.1616 27.8261 97.8091 30.4121 101.333 27.5309C104.93 25.5028 106.014 25.8056 105.481 29.826C105.063 33.2329 106.265 36.2313 107.844 35.5195C109.15 36.183 111.461 36.183 112.886 37.6672C113.834 38.9246 115.171 39.2351 117.747 40.6369C120 41.0339 121.261 42.8348 122.936 43.6791C125.31 44.7185 123.468 48.2017 121.484 50.2541C118.191 52.5248 120.536 55.1308 124.686 55.2709C129.722 55.4065 133.361 57.3444 134.933 58.0508C137.942 60.4401 137.44 61.7176 132.732 64.1155C128.642 66.9988 128.023 70.086 128.87 70.6755C130.867 72.491 131.25 74.1067 130.904 76.2964C130.593 77.6497 130.831 78.8564 132.829 82.4104C133.916 85.6618 133.987 85.9591 133.531 88.5991Z" fill="url(#paint0_linear_63_2693)"/>
<path id="Vector_2" d="M133.531 88.5991C132.118 90.8388 130.735 91.4546 128.717 93.2249L133.531 88.5991ZM133.531 88.5991C132.84 90.0403 131.855 92.3521 128.717 93.2249L133.531 88.5991ZM128.717 93.2249C126.533 93.799 124.621 94.9995 121.82 96.3563L128.717 93.2249ZM128.717 93.2249C126.819 93.9881 124.311 95.2466 121.82 96.3563L128.717 93.2249ZM121.82 96.3563C119.503 96.6288 118.65 98.3159 118.466 100.615L121.82 96.3563ZM121.82 96.3563C119.08 97.5493 119.161 99.1184 118.466 100.615L121.82 96.3563ZM118.466 100.615C117.702 102.871 118.292 105.055 118.237 107.115L118.466 100.615ZM118.466 100.615C117.64 102.348 118.807 104.79 118.237 107.115L118.466 100.615ZM118.237 107.115C118.73 109.527 117.571 110.594 115.432 112.012L118.237 107.115ZM118.237 107.115C118.425 108.783 116.837 111.375 115.432 112.012L118.237 107.115ZM115.432 112.012C113.401 112.327 111.655 114.757 111.896 117.093L115.432 112.012ZM115.432 112.012C114.016 112.656 112.974 114.897 111.896 117.093L115.432 112.012ZM111.896 117.093C111.383 119.728 109.923 121.196 107.501 120.604L111.896 117.093ZM111.896 117.093C110.903 119.661 110.628 121.419 107.501 120.604L111.896 117.093ZM107.501 120.604C105.41 120.587 102.159 119.238 99.5917 118.168L107.501 120.604ZM107.501 120.604C105.17 120.147 102.952 120.447 99.5917 118.168L107.501 120.604ZM99.5917 118.168C97.1429 116.422 94.8153 117.463 94.3721 119.946L99.5917 118.168ZM99.5917 118.168C97.1857 116.354 94.8707 116.746 94.3721 119.946L99.5917 118.168ZM94.3721 119.946C93.1666 122.881 92.8107 125.664 91.9381 129.407L94.3721 119.946ZM94.3721 119.946C94.519 122.243 92.1835 125.772 91.9381 129.407L94.3721 119.946ZM91.9381 129.407C90.3238 133.636 88.5601 133.231 86.296 129.196L91.9381 129.407ZM91.9381 129.407C91.2357 133.156 88.53 133.605 86.296 129.196L91.9381 129.407ZM86.296 129.196C84.1077 125.569 81.4788 125.699 79.9066 130.026L86.296 129.196ZM86.296 129.196C83.6414 125.527 80.945 126.069 79.9066 130.026L86.296 129.196ZM79.9066 130.026C78.0934 134.467 77.4278 134.617 74.8323 131.147L79.9066 130.026ZM79.9066 130.026C78.7868 133.952 77.2815 134.639 74.8323 131.147L79.9066 130.026ZM74.8323 131.147C73.3607 127.526 71.5044 125.259 69.3996 123.741L74.8323 131.147ZM74.8323 131.147C72.3617 126.878 71.4072 125.444 69.3996 123.741L74.8323 131.147ZM69.3996 123.741C67.9286 122.757 66.3534 122.661 63.7404 124.388L69.3996 123.741ZM69.3996 123.741C67.1596 122.895 65.2959 122.547 63.7404 124.388L69.3996 123.741ZM63.7404 124.388C61.4974 125.61 58.6185 128.811 56.008 131.3L63.7404 124.388ZM63.7404 124.388C62.2243 126.473 59.1119 128.358 56.008 131.3L63.7404 124.388ZM56.008 131.3C52.243 134.649 52.029 133.128 51.1473 128.33L56.008 131.3ZM56.008 131.3C53.7064 133.979 51.0264 133.313 51.1473 128.33L56.008 131.3ZM51.1473 128.33C51.6182 123.442 50.9284 120.165 49.6 118.162L51.1473 128.33ZM51.1473 128.33C51.2305 123.776 50.7662 119.728 49.6 118.162L51.1473 128.33ZM49.6 118.162C49.4152 115.768 47.5598 114.444 46.2166 113.967L49.6 118.162ZM49.6 118.162C48.809 115.547 47.3889 115.356 46.2166 113.967L49.6 118.162ZM46.2166 113.967C44.5931 113.408 43.3011 112.907 40.6642 112.569L46.2166 113.967ZM46.2166 113.967C43.9898 113.514 42.653 112.107 40.6642 112.569L46.2166 113.967ZM40.6642 112.569C38.7269 112.804 35.0081 112.419 31.7921 113.712L40.6642 112.569ZM40.6642 112.569C37.8721 113.021 35.4725 112.72 31.7921 113.712L40.6642 112.569ZM31.7921 113.712C27.8763 113.775 26.1813 113.322 27.369 110.322L31.7921 113.712ZM31.7921 113.712C27.9914 115.275 26.4468 113.469 27.369 110.322L31.7921 113.712ZM27.369 110.322C27.8502 107.115 27.0076 105.198 25.0787 104.3L27.369 110.322ZM27.369 110.322C28.7829 107.326 27.5849 105.1 25.0787 104.3L27.369 110.322ZM25.0787 104.3C23.281 103.797 21.676 101.936 19.7056 100.528L25.0787 104.3ZM25.0787 104.3C23.0237 103.659 20.4544 101.947 19.7056 100.528L25.0787 104.3ZM19.7056 100.528C17.9079 98.2689 17.5184 97.1999 15.2442 95.7499L19.7056 100.528ZM19.7056 100.528C17.8785 98.6957 17.4038 98.2677 15.2442 95.7499L19.7056 100.528ZM15.2442 95.7499C13.0174 94.2631 12.0167 91.7837 11.056 90.5153L15.2442 95.7499ZM15.2442 95.7499C12.943 94.0964 12.3724 91.8203 11.056 90.5153L15.2442 95.7499ZM11.056 90.5153C10.1056 88.3186 9.80415 86.6254 12.1429 84.0321L11.056 90.5153ZM11.056 90.5153C9.8078 88.4985 10.2767 86.368 12.1429 84.0321L11.056 90.5153ZM12.1429 84.0321C13.8578 81.5284 16.5069 78.6874 20.4047 77.0646L12.1429 84.0321ZM12.1429 84.0321C13.8229 81.3404 17.0359 79.5455 20.4047 77.0646L12.1429 84.0321ZM20.4047 77.0646C24.0173 74.9859 23.1005 73.2467 19.5019 71.004L20.4047 77.0646ZM20.4047 77.0646C23.8783 74.3289 23.3712 73.3031 19.5019 71.004L20.4047 77.0646ZM19.5019 71.004C14.9293 69.5203 13.9099 67.4464 14.0351 65.3146L19.5019 71.004ZM19.5019 71.004C14.4804 69.389 13.8842 66.9349 14.0351 65.3146L19.5019 71.004ZM14.0351 65.3146C14.3546 63.7349 15.5194 60.9229 15.3418 59.3972L14.0351 65.3146ZM14.0351 65.3146C14.5963 63.1237 15.1846 61.2599 15.3418 59.3972L14.0351 65.3146ZM15.3418 59.3972C15.65 57.1981 15.3454 55.2943 15.3698 53.0249L15.3418 59.3972ZM15.3418 59.3972C16.018 57.2987 16.0504 54.6671 15.3698 53.0249L15.3418 59.3972ZM15.3698 53.0249C15.4121 50.9406 16.8194 49.3943 21.518 49.3833L15.3698 53.0249ZM15.3698 53.0249C14.8724 50.8844 16.8481 49.1451 21.518 49.3833L15.3698 53.0249ZM21.518 49.3833C25.7742 49.5388 28.9381 48.3422 30.2066 47.5093L21.518 49.3833ZM21.518 49.3833C26.5216 50.0238 29.0373 48.3099 30.2066 47.5093L21.518 49.3833ZM30.2066 47.5093C31.2783 46.4196 31.009 43.1161 27.6025 39.0044L30.2066 47.5093ZM30.2066 47.5093C31.8437 46.6539 30.6795 43.8343 27.6025 39.0044L30.2066 47.5093ZM27.6025 39.0044C24.8467 34.792 24.5467 32.6434 27.1545 31.665L27.6025 39.0044ZM27.6025 39.0044C24.5297 33.7311 24.6508 31.417 27.1545 31.665L27.6025 39.0044ZM27.1545 31.665C29.9307 31.2131 33.2822 31.0436 35.0233 31.1616L27.1545 31.665ZM27.1545 31.665C30.7888 30.8094 32.3078 31.4496 35.0233 31.1616L27.1545 31.665ZM35.0233 31.1616C36.9121 31.5487 38.8357 29.2308 37.4059 24.2749L35.0233 31.1616ZM35.0233 31.1616C37.6458 31.1084 38.6486 29.2009 37.4059 24.2749L35.0233 31.1616ZM37.4059 24.2749C36.9731 20.2336 37.3355 16.9557 39.9167 17.589L37.4059 24.2749ZM37.4059 24.2749C36.8652 19.89 37.9744 17.7463 39.9167 17.589L37.4059 24.2749ZM39.9167 17.589C41.7454 18.1682 44.5282 17.9522 47.1108 17.7985L39.9167 17.589ZM39.9167 17.589C41.7679 18.0051 44.5227 17.1636 47.1108 17.7985L39.9167 17.589ZM47.1108 17.7985C48.9459 17.6663 52.168 18.879 54.1789 19.3593L47.1108 17.7985ZM47.1108 17.7985C49.415 18.4246 51.322 18.2246 54.1789 19.3593L47.1108 17.7985ZM54.1789 19.3593C56.0728 20.3599 59.3562 21.0038 60.884 22.5639L54.1789 19.3593ZM54.1789 19.3593C56.5777 20.7152 59.4492 21.9652 60.884 22.5639L54.1789 19.3593ZM60.884 22.5639C63.2247 24.4328 64.6657 21.7426 65.6597 16.5505L60.884 22.5639ZM60.884 22.5639C62.3809 23.7509 64.3186 21.7296 65.6597 16.5505L60.884 22.5639ZM65.6597 16.5505C67.2765 11.4398 68.6003 10.5481 70.5697 15.3936L65.6597 16.5505ZM65.6597 16.5505C66.5176 12.0446 67.7684 11.045 70.5697 15.3936L65.6597 16.5505ZM70.5697 15.3936C72.8407 19.2341 74.9175 20.6889 76.6173 18.453L70.5697 15.3936ZM70.5697 15.3936C73.4648 19.8774 74.5237 21.5018 76.6173 18.453L70.5697 15.3936ZM76.6173 18.453C79.0871 15.8563 80.5191 15.2512 82.582 14.0812L76.6173 18.453ZM76.6173 18.453C78.4106 15.4708 80.6344 15.3301 82.582 14.0812L76.6173 18.453ZM82.582 14.0812C85.0312 13.5018 85.7427 14.1066 87.8975 15.7722L82.582 14.0812ZM82.582 14.0812C85.0516 12.9591 86.4138 14.7452 87.8975 15.7722L82.582 14.0812ZM87.8975 15.7722C89.6795 17.6411 90.863 17.6326 94.2335 15.9646L87.8975 15.7722ZM87.8975 15.7722C89.8485 18.2075 91.8493 18.1175 94.2335 15.9646L87.8975 15.7722ZM94.2335 15.9646C96.5048 14.5611 98.4852 16.4356 97.3457 22.1683L94.2335 15.9646ZM94.2335 15.9646C97.4965 14.0235 98.4202 16.6713 97.3457 22.1683L94.2335 15.9646ZM97.3457 22.1683C96.2051 27.3201 97.3512 29.5504 101.333 27.531L97.3457 22.1683ZM97.3457 22.1683C96.7788 28.6541 98.1155 29.6973 101.333 27.531L97.3457 22.1683ZM101.333 27.531C104.409 25.4094 105.509 26.5716 105.481 29.826L101.333 27.531ZM101.333 27.531C105.248 25.4043 105.638 25.4353 105.481 29.826L101.333 27.531ZM105.481 29.826C104.745 33.7164 105.676 35.6043 107.844 35.5195L105.481 29.826ZM105.481 29.826C104.677 32.6739 105.133 34.7064 107.844 35.5195L105.481 29.826ZM107.844 35.5195C110.28 35.9348 111.238 35.902 112.886 37.6673L107.844 35.5195ZM107.844 35.5195C110.063 35.5915 111.979 36.6913 112.886 37.6673L107.844 35.5195ZM112.886 37.6673C113.821 39.3265 116.004 39.6885 117.747 40.6369L112.886 37.6673ZM112.886 37.6673C113.531 39.1564 115.28 40.528 117.747 40.6369L112.886 37.6673ZM117.747 40.6369C119.167 41.4557 121.764 42.5618 122.936 43.6792L117.747 40.6369ZM117.747 40.6369C119.416 41.9568 121.767 42.2892 122.936 43.6792L117.747 40.6369ZM122.936 43.6792C124.418 44.6048 123.916 47.2126 121.484 50.2542L122.936 43.6792ZM122.936 43.6792C123.609 45.1578 123.59 47.9355 121.484 50.2542L122.936 43.6792ZM121.484 50.2542C119.622 53.1851 119.697 54.4975 124.686 55.271L121.484 50.2542ZM121.484 50.2542C119.691 53.5808 120.846 55.2697 124.686 55.271L121.484 50.2542ZM124.686 55.271C129.001 55.5373 132.2 56.4438 134.933 58.0508L124.686 55.271ZM124.686 55.271C129.066 55.7973 132.571 56.5483 134.933 58.0508L124.686 55.271ZM134.933 58.0508C137.572 59.3292 136.308 61.2106 132.732 64.1156L134.933 58.0508ZM134.933 58.0508C137.821 59.0306 136.98 61.4298 132.732 64.1156L134.933 58.0508ZM132.732 64.1156C129.026 66.534 127.931 68.9016 128.87 70.6755L132.732 64.1156ZM132.732 64.1156C129.686 66.4264 127.654 69.1454 128.87 70.6755L132.732 64.1156ZM128.87 70.6755C129.723 71.9408 130.537 74.7875 130.904 76.2964L128.87 70.6755ZM128.87 70.6755C130.305 71.8317 130.095 74.6958 130.904 76.2964L128.87 70.6755ZM130.904 76.2964C131.205 78.3948 131.225 80.3592 132.829 82.4104L130.904 76.2964ZM130.904 76.2964C130.554 77.6253 131.929 80.6054 132.829 82.4104L130.904 76.2964ZM132.829 82.4104C134.327 84.8212 134.32 86.1409 133.531 88.5991L132.829 82.4104ZM132.829 82.4104C134.5 84.1404 133.737 85.9569 133.531 88.5991L132.829 82.4104Z" fill="url(#paint1_linear_63_2693)"/>
</g>
<g id="Group 260">
<g id="Group 258">
<path id="Ellipse 151" d="M70.0235 66.8914C68.5584 73.5262 61.8557 77.6869 55.0525 76.1846C48.2493 74.6823 43.922 68.0859 45.3871 61.4511C51.6831 62.8413 50.9022 62.6689 57.7053 64.1712C64.5085 65.6735 62.0851 65.1384 70.0235 66.8914Z" fill="white"/>
<path id="Ellipse 155" d="M57.979 64.2316C57.3796 66.9458 54.5652 68.632 51.6927 67.9977C48.8203 67.3634 46.9776 64.6488 47.5769 61.9346C50.2352 62.5216 49.9055 62.4488 52.778 63.0831C55.6504 63.7174 54.6272 63.4915 57.979 64.2316Z" fill="black"/>
</g>
<ellipse id="Ellipse 156" cx="49.4052" cy="64.0562" rx="0.560665" ry="0.559219" transform="rotate(12.4524 49.4052 64.0562)" fill="white"/>
</g>
<g id="Group 261">
<g id="Group 259">
<path id="Ellipse 153" d="M103.797 74.3492C102.332 80.9841 95.6292 85.1448 88.826 83.6425C82.0229 82.1402 77.6955 75.5438 79.1606 68.909C85.4566 70.2992 84.6757 70.1268 91.4788 71.6291C98.282 73.1314 95.8587 72.5963 103.797 74.3492Z" fill="white"/>
<path id="Ellipse 154" d="M91.2051 71.5686C90.6057 74.2829 87.7913 75.969 84.9188 75.3347C82.0464 74.7004 80.2037 71.9859 80.803 69.2716C83.4613 69.8586 83.1316 69.7858 86.0041 70.4201C88.8765 71.0544 87.8533 70.8285 91.2051 71.5686Z" fill="black"/>
</g>
<ellipse id="Ellipse 157" cx="82.6313" cy="71.3933" rx="0.560665" ry="0.559219" transform="rotate(12.4524 82.6313 71.3933)" fill="white"/>
</g>
<path id="Rectangle 498" d="M65.526 84.3626C66.2081 81.274 69.2648 79.323 72.3534 80.0051C75.4421 80.6871 77.393 83.7438 76.7109 86.8325L75.7005 91.4081C75.5765 91.9697 75.0208 92.3244 74.4592 92.2004L65.3079 90.1796C64.7463 90.0556 64.3916 89.4998 64.5156 88.9382L65.526 84.3626Z" fill="black"/>
</g>
<defs>
<linearGradient id="paint0_linear_63_2693" x1="87.0126" y1="13.7434" x2="60.3802" y2="134.349" gradientUnits="userSpaceOnUse">
<stop stop-color="#232020"/>
<stop offset="1" stop-color="#612766"/>
</linearGradient>
<linearGradient id="paint1_linear_63_2693" x1="87.0511" y1="13.3032" x2="60.2439" y2="134.7" gradientUnits="userSpaceOnUse">
<stop stop-color="#232020"/>
<stop offset="1" stop-color="#612766"/>
</linearGradient>
</defs>
</svg>
