<svg width="46" height="47" viewBox="0 0 46 47" fill="none" xmlns="http://www.w3.org/2000/svg">
<g id="Group 335">
<path id="Vector" d="M45.0446 28.1693C43.9883 31.2633 42.8843 33.9198 41.7825 36.3564C40.8645 39.1869 38.0822 41.0193 35.5142 41.2175C32.2903 41.5159 30.1403 42.5685 27.519 43.2003C24.8282 43.7042 22.3014 45.3664 19.5877 46.3344C16.6533 47.5422 14.2954 46.0926 13.4474 43.0084C11.9453 39.4989 10.5219 37.6909 8.13854 36.2924C5.61859 35.4311 3.63755 33.6918 2.25405 31.4953C0.527753 29.2432 0.409594 26.6881 0.0153809 24.0117C0.214463 21.1587 0.459109 18.5981 0.207267 15.2489C0.664908 11.942 2.10289 10.3331 5.26026 9.36445C8.1594 8.54848 10.6344 6.36421 12.6798 3.99165C14.7707 1.00868 16.3933 -0.197344 19.7156 0.0260131C23.1856 0.605038 25.1132 1.12252 28.0307 2.3926C30.3006 3.47326 32.9257 5.02009 36.4097 5.71862C39.4773 6.14082 41.0882 8.28058 40.887 11.859C40.5433 15.343 41.6694 17.9652 43.6374 20.4299C45.5729 22.7451 45.8803 25.3914 45.0446 28.1693Z" fill="url(#paint0_linear_106_5365)"/>
<path id="Vector_2" d="M45.0445 28.1691C43.8081 31.12 42.7274 33.4872 41.7825 36.3562L45.0445 28.1691ZM45.0445 28.1691C44.0107 30.7646 43.2165 33.7285 41.7825 36.3562L45.0445 28.1691ZM41.7825 36.3562C40.6779 38.795 38.7451 40.4417 35.5142 41.2173L41.7825 36.3562ZM41.7825 36.3562C40.7995 38.8417 38.6501 40.5588 35.5142 41.2173L41.7825 36.3562ZM35.5142 41.2173C32.3744 41.5509 29.8294 42.2894 27.519 43.2001L35.5142 41.2173ZM35.5142 41.2173C32.2928 41.9271 30.085 42.5452 27.519 43.2001L35.5142 41.2173ZM27.519 43.2001C24.9898 44.1426 22.5946 45.1389 19.5877 46.3343L27.519 43.2001ZM27.519 43.2001C24.924 43.9536 22.7642 44.9985 19.5877 46.3343L27.519 43.2001ZM19.5877 46.3343C16.8126 47.6151 14.6365 46.3149 13.4474 43.0083L19.5877 46.3343ZM19.5877 46.3343C16.6386 47.3641 14.4281 46.6648 13.4474 43.0083L19.5877 46.3343ZM13.4474 43.0083C12.2079 39.2831 10.2882 37.364 8.13853 36.2923L13.4474 43.0083ZM13.4474 43.0083C12.4629 39.3547 10.7891 37.3081 8.13853 36.2923L13.4474 43.0083ZM8.13853 36.2923C5.73342 35.3931 3.79803 33.904 2.25403 31.4951L8.13853 36.2923ZM8.13853 36.2923C5.54973 35.4078 4.07816 33.9291 2.25403 31.4951L8.13853 36.2923ZM2.25403 31.4951C0.879936 29.2721 -0.138383 26.6287 0.0153646 24.0116L2.25403 31.4951ZM2.25403 31.4951C0.754625 29.1287 0.254952 27.0124 0.0153646 24.0116L2.25403 31.4951ZM0.0153646 24.0116C0.157658 21.1338 0.0403349 18.4275 0.20725 15.2488L0.0153646 24.0116ZM0.0153646 24.0116C0.16801 21.1051 0.00211829 18.1568 0.20725 15.2488L0.0153646 24.0116ZM0.20725 15.2488C0.128303 12.3002 1.95127 10.164 5.26024 9.36431L0.20725 15.2488ZM0.20725 15.2488C0.577812 11.9526 1.72742 10.2554 5.26024 9.36431L0.20725 15.2488ZM5.26024 9.36431C8.33371 8.80542 10.823 6.88104 12.6798 3.99151L5.26024 9.36431ZM5.26024 9.36431C8.63275 8.55268 10.8425 7.0222 12.6798 3.99151L5.26024 9.36431ZM12.6798 3.99151C14.5983 1.24748 16.7464 -0.0879421 19.7156 0.0258711L12.6798 3.99151ZM12.6798 3.99151C14.4218 1.26995 16.5786 0.0928463 19.7156 0.0258711L12.6798 3.99151ZM19.7156 0.0258711C22.6048 0.201703 25.7388 0.823839 28.0307 2.39246L19.7156 0.0258711ZM19.7156 0.0258711C22.8199 -0.046163 25.6863 0.843919 28.0307 2.39246L19.7156 0.0258711ZM28.0307 2.39246C30.7273 3.81352 33.52 5.0008 36.4097 5.71848L28.0307 2.39246ZM28.0307 2.39246C30.3035 3.65489 33.499 5.07723 36.4097 5.71848L28.0307 2.39246ZM36.4097 5.71848C39.5783 6.58254 41.1608 8.48829 40.887 11.8588L36.4097 5.71848ZM36.4097 5.71848C39.3043 6.69687 40.7591 8.53278 40.887 11.8588L36.4097 5.71848ZM40.887 11.8588C40.7093 15.0119 41.5878 18.2265 43.6374 20.4297L40.887 11.8588ZM40.887 11.8588C41.0498 15.2727 41.7337 18.0181 43.6374 20.4297L40.887 11.8588ZM43.6374 20.4297C45.3292 23.0469 46.2765 25.3144 45.0445 28.1691L43.6374 20.4297ZM43.6374 20.4297C45.8173 22.6786 45.9196 25.4653 45.0445 28.1691L43.6374 20.4297Z" fill="url(#paint1_linear_106_5365)"/>
<g id="Vector 1" filter="url(#filter0_d_106_5365)">
<path d="M20.3162 23.6611L11.0408 21.8147C11.2554 22.6157 11.9734 24.4214 13.1282 25.2359C14.2831 26.0504 18.4014 24.5254 20.3162 23.6611Z" fill="white"/>
</g>
<g id="Vector 2" filter="url(#filter1_d_106_5365)">
<path d="M23.6244 24.2018L32.2107 19.8727C32.2249 20.7013 32.0271 22.6337 31.1221 23.7342C30.2172 24.8348 25.7466 24.5045 23.6244 24.2018Z" fill="white"/>
</g>
</g>
<defs>
<filter id="filter0_d_106_5365" x="1.04077" y="11.8147" width="29.2754" height="23.6532" filterUnits="userSpaceOnUse" color-interpolation-filters="sRGB">
<feFlood flood-opacity="0" result="BackgroundImageFix"/>
<feColorMatrix in="SourceAlpha" type="matrix" values="0 0 0 0 0 0 0 0 0 0 0 0 0 0 0 0 0 0 127 0" result="hardAlpha"/>
<feOffset/>
<feGaussianBlur stdDeviation="5"/>
<feComposite in2="hardAlpha" operator="out"/>
<feColorMatrix type="matrix" values="0 0 0 0 1 0 0 0 0 1 0 0 0 0 1 0 0 0 0.25 0"/>
<feBlend mode="normal" in2="BackgroundImageFix" result="effect1_dropShadow_106_5365"/>
<feBlend mode="normal" in="SourceGraphic" in2="effect1_dropShadow_106_5365" result="shape"/>
</filter>
<filter id="filter1_d_106_5365" x="13.6243" y="9.87268" width="28.5872" height="24.6228" filterUnits="userSpaceOnUse" color-interpolation-filters="sRGB">
<feFlood flood-opacity="0" result="BackgroundImageFix"/>
<feColorMatrix in="SourceAlpha" type="matrix" values="0 0 0 0 0 0 0 0 0 0 0 0 0 0 0 0 0 0 127 0" result="hardAlpha"/>
<feOffset/>
<feGaussianBlur stdDeviation="5"/>
<feComposite in2="hardAlpha" operator="out"/>
<feColorMatrix type="matrix" values="0 0 0 0 1 0 0 0 0 1 0 0 0 0 1 0 0 0 0.25 0"/>
<feBlend mode="normal" in2="BackgroundImageFix" result="effect1_dropShadow_106_5365"/>
<feBlend mode="normal" in="SourceGraphic" in2="effect1_dropShadow_106_5365" result="shape"/>
</filter>
<linearGradient id="paint0_linear_106_5365" x1="22.7485" y1="0" x2="22.7485" y2="46.759" gradientUnits="userSpaceOnUse">
<stop stop-color="#333333"/>
<stop offset="1" stop-color="#211131"/>
</linearGradient>
<linearGradient id="paint1_linear_106_5365" x1="22.8024" y1="0.019165" x2="22.8024" y2="46.8202" gradientUnits="userSpaceOnUse">
<stop stop-color="#333333"/>
<stop offset="1" stop-color="#211131"/>
</linearGradient>
</defs>
</svg>
