<svg width="27" height="27" viewBox="0 0 27 27" fill="none" xmlns="http://www.w3.org/2000/svg">
<g id="Group 32">
<path id="Vector" d="M26.4125 3.2136V20.8218C26.4125 22.2583 25.3699 23.5763 24.0896 23.754L23.6804 23.8132C21.5159 24.139 18.467 25.1461 16.012 26.3012C15.1541 26.701 14.2038 25.9754 14.2038 24.9239V4.32429C14.2038 3.77635 14.481 3.27284 14.9166 3.00627C17.3319 1.54016 20.9879 0.236948 23.4693 0H23.5484C25.1323 0 26.4125 1.43649 26.4125 3.2136Z" fill="#333333"/>
<path id="Vector_2" d="M11.5092 3.00627C9.09385 1.54016 5.43783 0.236948 2.95649 0H2.8641C1.28027 0 0 1.43649 0 3.2136V20.8218C0 22.2583 1.04269 23.5763 2.32296 23.754L2.73211 23.8132C4.89669 24.139 7.94557 25.1461 10.4005 26.3012C11.2584 26.701 12.2087 25.9754 12.2087 24.9239V4.32429C12.2087 3.76154 11.9448 3.27284 11.5092 3.00627ZM3.97278 7.49347H6.94247C7.48362 7.49347 7.93237 7.99698 7.93237 8.60416C7.93237 9.22614 7.48362 9.71485 6.94247 9.71485H3.97278C3.43164 9.71485 2.98289 9.22614 2.98289 8.60416C2.98289 7.99698 3.43164 7.49347 3.97278 7.49347ZM7.93237 14.1576H3.97278C3.43164 14.1576 2.98289 13.6689 2.98289 13.0469C2.98289 12.4398 3.43164 11.9362 3.97278 11.9362H7.93237C8.47351 11.9362 8.92226 12.4398 8.92226 13.0469C8.92226 13.6689 8.47351 14.1576 7.93237 14.1576Z" fill="#333333"/>
</g>
</svg>
