<svg width="27" height="27" viewBox="0 0 27 27" fill="none" xmlns="http://www.w3.org/2000/svg">
<path id="Vector" d="M27 12.75C27.0051 14.7298 26.5426 16.6828 25.65 18.45C24.5916 20.5676 22.9646 22.3488 20.9511 23.5939C18.9377 24.8391 16.6173 25.4991 14.25 25.5C12.2702 25.5052 10.3172 25.0426 8.54999 24.15L0 27L2.85 18.45C1.95739 16.6828 1.49484 14.7298 1.5 12.75C1.50091 10.3827 2.16091 8.06231 3.40607 6.04886C4.65123 4.03541 6.43237 2.40839 8.54999 1.35004C10.3172 0.457439 12.2702 -0.00511914 14.25 4.27321e-05H15C18.1265 0.17253 21.0795 1.49218 23.2937 3.70633C25.5078 5.92047 26.8275 8.87351 27 12V12.75Z" fill="#333333"/>
</svg>
