<svg width="27" height="27" viewBox="0 0 27 27" fill="none" xmlns="http://www.w3.org/2000/svg">
<g id="&#240;&#159;&#166;&#134; icon &#34;home 2&#34;">
<path id="Vector" d="M23.8402 6.36321L16.2324 1.04044C14.1588 -0.412428 10.9757 -0.333181 8.98136 1.21214L2.36421 6.37642C1.04342 7.40663 0 9.51989 0 11.184V20.2975C0 23.6655 2.73403 26.4127 6.10204 26.4127H20.3401C23.7081 26.4127 26.4421 23.6787 26.4421 20.3107V11.3557C26.4421 9.57272 25.293 7.38022 23.8402 6.36321ZM14.2116 21.1295C14.2116 21.6711 13.7626 22.1201 13.221 22.1201C12.6795 22.1201 12.2305 21.6711 12.2305 21.1295V17.1672C12.2305 16.6257 12.6795 16.1766 13.221 16.1766C13.7626 16.1766 14.2116 16.6257 14.2116 17.1672V21.1295Z" fill="#333333"/>
</g>
</svg>
